<?xml version="1.0" encoding="utf-8"?>
<!-- Generator: Adobe Illustrator 16.0.0, SVG Export Plug-In . SVG Version: 6.00 Build 0)  -->
<!DOCTYPE svg PUBLIC "-//W3C//DTD SVG 1.1//EN" "http://www.w3.org/Graphics/SVG/1.1/DTD/svg11.dtd">
<svg version="1.1" xmlns="http://www.w3.org/2000/svg" xmlns:xlink="http://www.w3.org/1999/xlink" x="0px" y="0px" width="180px"
	 height="60px" viewBox="0 0 180 60" style="enable-background:new 0 0 180 60;" xml:space="preserve">
<g id="Layer_1" style="display:none;">
	<g style="display:inline;">
		<text transform="matrix(1 0 0 1 144.7129 56.1348)" style="fill:#ADADAD; font-family:'Roboto-Regular'; font-size:10;">BETA</text>
		<text transform="matrix(1 0 0 1 8.8179 36.1348)" style="fill:#ADADAD; font-family:'Satisfy'; font-size:40;">SocialMind</text>
	</g>
</g>
<g id="Layer_2">
	<g>
		<g>
			<path style="fill:#ADADAD;" d="M145.795,56.135v-7.109h2.318c0.742,0,1.324,0.16,1.744,0.481s0.629,0.802,0.629,1.442
				c0,0.316-0.1,0.599-0.303,0.848c-0.201,0.249-0.467,0.434-0.795,0.555c0.43,0.091,0.768,0.301,1.012,0.629
				c0.246,0.329,0.369,0.712,0.369,1.148c0,0.65-0.211,1.148-0.633,1.491c-0.42,0.343-0.992,0.515-1.715,0.515H145.795z
				 M146.756,52.049h1.559c0.357,0,0.648-0.1,0.873-0.296s0.338-0.472,0.338-0.823c0-0.384-0.121-0.671-0.365-0.861
				c-0.242-0.19-0.59-0.285-1.047-0.285h-1.357V52.049z M146.756,52.805v2.574h1.666c0.436,0,0.775-0.108,1.02-0.324
				c0.244-0.215,0.367-0.521,0.367-0.916c0-0.416-0.102-0.742-0.307-0.979c-0.203-0.236-0.516-0.355-0.939-0.355H146.756z"/>
			<path style="fill:#ADADAD;" d="M156.393,52.84h-3.256v2.539h3.754v0.756h-4.717v-7.109h4.664v0.758h-3.701v2.299h3.256V52.84z"/>
			<path style="fill:#ADADAD;" d="M163.242,49.783h-2.285v6.352h-0.961v-6.352h-2.281v-0.758h5.527V49.783z"/>
			<path style="fill:#ADADAD;" d="M167.541,54.305h-2.979l-0.674,1.83h-0.982l2.75-7.109h0.824l2.705,7.109h-0.98L167.541,54.305z
				 M164.859,53.498h2.393l-1.172-3.236h-0.029L164.859,53.498z"/>
		</g>
		<g>
			<path style="fill:#ADADAD;" d="M24.89,18.206c-0.026-0.078,0.052-0.279,0.234-0.605c0.182-0.325,0.384-0.729,0.605-1.211
				c0.221-0.481,0.442-1.028,0.664-1.641c0.221-0.611,0.377-1.243,0.469-1.895c0.091-0.65,0.084-1.302-0.02-1.953
				c-0.104-0.65-0.378-1.275-0.82-1.875c-0.261-0.313-0.645-0.488-1.152-0.527s-1.081,0.039-1.719,0.234
				c-0.639,0.195-1.303,0.495-1.992,0.898c-0.69,0.404-1.322,0.873-1.895,1.406c-0.573,0.534-1.062,1.127-1.465,1.777
				c-0.404,0.651-0.632,1.315-0.684,1.992c-0.053,0.547-0.033,1.055,0.059,1.523c0.091,0.469,0.215,0.898,0.371,1.289
				s0.325,0.756,0.508,1.094c0.182,0.339,0.352,0.639,0.508,0.898c0.208,0.365,0.533,0.769,0.977,1.211
				c0.442,0.443,0.924,0.944,1.445,1.504c0.521,0.561,1.041,1.191,1.563,1.895c0.521,0.703,0.977,1.498,1.367,2.383
				c0.391,0.886,0.664,1.875,0.82,2.969s0.143,2.304-0.039,3.632c-0.287,1.928-0.742,3.535-1.367,4.824s-1.309,2.324-2.051,3.105
				s-1.491,1.348-2.246,1.699c-0.756,0.352-1.381,0.58-1.875,0.684c-0.391,0.078-0.854,0.15-1.387,0.215
				c-0.534,0.064-1.094,0.053-1.68-0.039s-1.179-0.273-1.777-0.547c-0.6-0.273-1.133-0.697-1.602-1.27
				c-0.547-0.65-0.977-1.354-1.289-2.109c-0.286-0.65-0.501-1.4-0.645-2.246c-0.143-0.846-0.071-1.725,0.215-2.637
				c0.209-0.234,0.43-0.441,0.664-0.625c0.234-0.182,0.469-0.338,0.703-0.469c0.26-0.156,0.533-0.299,0.82-0.43
				c0.338-0.104,0.677-0.195,1.016-0.273c0.286-0.051,0.592-0.084,0.918-0.098c0.325-0.012,0.631,0.033,0.918,0.137
				c-0.391,0.443-0.664,0.859-0.82,1.25c-0.104,0.209-0.183,0.391-0.234,0.547c-0.104,0.496-0.137,1.088-0.098,1.777
				s0.182,1.354,0.43,1.992c0.247,0.639,0.605,1.186,1.074,1.641s1.094,0.697,1.875,0.723c1.9,0.053,3.516-1.432,4.844-4.453
				c0.442-0.938,0.67-1.887,0.684-2.852c0.013-0.963-0.104-1.887-0.352-2.773c-0.248-0.885-0.573-1.712-0.977-2.48
				c-0.404-0.768-0.814-1.426-1.23-1.973c-0.417-0.547-0.918-1.139-1.504-1.777c-0.586-0.638-1.166-1.334-1.738-2.09
				c-0.573-0.755-1.088-1.575-1.543-2.461c-0.456-0.885-0.762-1.849-0.918-2.891c-0.209-1.458-0.072-2.793,0.41-4.004
				c0.481-1.211,1.133-2.271,1.953-3.184c0.82-0.911,1.719-1.653,2.695-2.227c0.977-0.572,1.842-0.938,2.598-1.094
				c4.192-0.833,6.939-0.13,8.242,2.109c0.547,0.859,0.846,1.771,0.898,2.734c0.052,0.964-0.007,1.855-0.176,2.676
				c-0.17,0.82-0.378,1.511-0.625,2.07c-0.248,0.561-0.41,0.866-0.488,0.918c-0.156,0.156-0.404,0.326-0.742,0.508
				c-0.339,0.183-0.886,0.352-1.641,0.508c-0.209,0.053-0.417,0.078-0.625,0.078c-0.183,0-0.378-0.013-0.586-0.039
				C25.228,18.336,25.046,18.284,24.89,18.206z"/>
			<path style="fill:#ADADAD;" d="M39.101,29.924c-0.261,0.99-0.612,1.914-1.055,2.773c-0.443,0.859-0.971,1.602-1.582,2.227
				c-0.612,0.625-1.303,1.113-2.07,1.465c-0.769,0.352-1.608,0.527-2.52,0.527c-1.068,0-1.908-0.229-2.52-0.684
				c-0.612-0.455-1.068-1.021-1.367-1.699c-0.3-0.676-0.481-1.418-0.547-2.227c-0.064-0.807-0.098-1.562-0.098-2.265
				c0-0.494,0.059-1.041,0.176-1.641c0.117-0.599,0.279-1.211,0.488-1.836c0.208-0.625,0.475-1.25,0.801-1.875
				c0.325-0.625,0.709-1.197,1.152-1.719c0.156-0.442,0.396-0.833,0.723-1.172c0.325-0.338,0.703-0.618,1.133-0.84
				c0.43-0.221,0.892-0.391,1.387-0.508c0.494-0.117,0.977-0.176,1.445-0.176c0.078,0,0.149,0.014,0.215,0.039
				c0.064,0.026,0.137,0.053,0.215,0.078c0.338,0.026,0.762,0.156,1.27,0.391s1.002,0.586,1.484,1.055
				c0.481,0.469,0.892,1.062,1.23,1.777c0.338,0.717,0.508,1.582,0.508,2.598c0,0.209-0.014,0.463-0.039,0.762
				c-0.026,0.3-0.053,0.554-0.078,0.762c0.599-0.234,1.224-0.521,1.875-0.859c0.65-0.338,1.282-0.696,1.895-1.074
				c0.611-0.377,1.178-0.762,1.699-1.152c0.521-0.391,0.938-0.742,1.25-1.055c0.26-0.234,0.481-0.364,0.664-0.391
				c0.182-0.025,0.313,0.026,0.391,0.156c0.078,0.131,0.091,0.313,0.039,0.547c-0.053,0.234-0.195,0.495-0.43,0.781
				c-0.131,0.156-0.463,0.469-0.996,0.938c-0.534,0.469-1.166,0.977-1.895,1.523c-0.729,0.547-1.523,1.081-2.383,1.602
				C40.703,29.274,39.882,29.665,39.101,29.924z M30,30.862c0,0.468,0.025,0.931,0.078,1.386c0.052,0.457,0.156,0.859,0.313,1.211
				s0.364,0.639,0.625,0.859c0.26,0.223,0.599,0.332,1.016,0.332c0.469,0,0.898-0.109,1.289-0.332
				c0.391-0.221,0.742-0.508,1.055-0.859s0.592-0.754,0.84-1.211c0.247-0.455,0.462-0.93,0.645-1.425
				c-0.183,0.026-0.358,0.046-0.527,0.059c-0.17,0.014-0.358,0.02-0.566,0.02c-0.99,0-1.843-0.293-2.559-0.879
				c-0.717-0.586-1.27-1.334-1.66-2.246c-0.156,0.547-0.287,1.081-0.391,1.602C30.051,29.899,30,30.393,30,30.862z M32.5,23.987
				c-0.078,0.234-0.117,0.482-0.117,0.742c0,0.417,0.025,0.854,0.078,1.309c0.052,0.456,0.182,0.866,0.391,1.23
				c0.208,0.365,0.54,0.671,0.996,0.918c0.455,0.248,1.087,0.371,1.895,0.371c0.13,0,0.26-0.006,0.391-0.02
				c0.13-0.013,0.26-0.032,0.391-0.059c0.078-0.338,0.149-0.645,0.215-0.918c0.064-0.273,0.098-0.514,0.098-0.723
				c0.052-0.494,0.052-1.002,0-1.523c-0.053-0.521-0.15-0.996-0.293-1.426c-0.144-0.43-0.326-0.781-0.547-1.055
				c-0.222-0.273-0.488-0.41-0.801-0.41c-0.495,0-0.971,0.137-1.426,0.41C33.313,23.108,32.89,23.493,32.5,23.987z"/>
			<path style="fill:#ADADAD;" d="M49.473,34.807c0.807,0,1.699-0.318,2.676-0.957c0.977-0.637,1.927-1.387,2.852-2.246
				c0.924-0.859,1.771-1.738,2.539-2.636c0.768-0.898,1.348-1.621,1.738-2.168c0.234-0.338,0.455-0.54,0.664-0.605
				c0.208-0.064,0.364-0.032,0.469,0.098c0.104,0.131,0.143,0.332,0.117,0.605c-0.026,0.273-0.144,0.58-0.352,0.918
				c-0.183,0.313-0.488,0.762-0.918,1.348s-0.938,1.225-1.523,1.914c-0.586,0.691-1.25,1.395-1.992,2.109
				c-0.742,0.717-1.518,1.367-2.324,1.953c-0.808,0.586-1.641,1.068-2.5,1.445s-1.706,0.566-2.539,0.566
				c-1.146,0-2.104-0.215-2.871-0.645c-0.769-0.43-1.381-0.982-1.836-1.66c-0.456-0.676-0.775-1.426-0.957-2.246
				s-0.273-1.633-0.273-2.441c0-0.807,0.183-1.81,0.547-3.008c0.364-1.197,0.904-2.35,1.621-3.457
				c0.716-1.106,1.621-2.057,2.715-2.852c1.094-0.794,2.383-1.191,3.867-1.191c0.833,0,1.543,0.287,2.129,0.859
				c0.586,0.573,0.865,1.354,0.84,2.344c0,0.469-0.078,0.932-0.234,1.387c-0.156,0.456-0.365,0.859-0.625,1.211
				c-0.261,0.352-0.566,0.632-0.918,0.84c-0.352,0.209-0.736,0.313-1.152,0.313c-0.339,0-0.593-0.123-0.762-0.371
				c-0.17-0.247-0.273-0.533-0.313-0.859c-0.039-0.325-0.039-0.645,0-0.957s0.084-0.521,0.137-0.625
				c0.13-0.182,0.273-0.313,0.43-0.391s0.338-0.169,0.547-0.273c0.156-0.078,0.279-0.195,0.371-0.352
				c0.091-0.156,0.137-0.325,0.137-0.508c0-0.182-0.053-0.338-0.156-0.469c-0.104-0.13-0.273-0.195-0.508-0.195
				s-0.658,0.189-1.27,0.566c-0.612,0.378-1.237,0.938-1.875,1.68c-0.639,0.742-1.205,1.674-1.699,2.793
				c-0.495,1.12-0.756,2.422-0.781,3.906c-0.026,0.859,0.091,1.562,0.352,2.109c0.26,0.547,0.586,0.977,0.977,1.289
				s0.82,0.535,1.289,0.664C48.575,34.742,49.03,34.807,49.473,34.807z"/>
			<path style="fill:#ADADAD;" d="M60.035,21.448c0.13-0.156,0.377-0.286,0.742-0.391c0.364-0.104,0.742-0.188,1.133-0.254
				c0.391-0.064,0.748-0.104,1.074-0.117c0.325-0.013,0.514-0.006,0.566,0.02c0.025,0.026-0.039,0.3-0.195,0.82
				c-0.156,0.521-0.352,1.133-0.586,1.836s-0.482,1.426-0.742,2.168c-0.261,0.742-0.456,1.348-0.586,1.816
				c-0.131,0.469-0.287,0.996-0.469,1.582c-0.183,0.586-0.346,1.159-0.488,1.719c-0.144,0.56-0.241,1.087-0.293,1.582
				c-0.053,0.496-0.014,0.873,0.117,1.133c0.13,0.313,0.273,0.527,0.43,0.645s0.325,0.176,0.508,0.176
				c0.521,0,1.178-0.285,1.973-0.859c0.794-0.572,1.602-1.256,2.422-2.051c0.82-0.793,1.582-1.601,2.285-2.421
				s1.224-1.478,1.563-1.973c0.208-0.26,0.423-0.43,0.645-0.508c0.221-0.078,0.403-0.064,0.547,0.039
				c0.143,0.104,0.221,0.273,0.234,0.508c0.013,0.234-0.072,0.508-0.254,0.82c-0.417,0.729-1.029,1.596-1.836,2.598
				c-0.808,1.003-1.667,1.966-2.578,2.89c-0.912,0.926-1.804,1.713-2.676,2.363c-0.873,0.65-1.582,0.99-2.129,1.016
				c-0.443,0.025-0.879-0.045-1.309-0.215s-0.82-0.402-1.172-0.703c-0.352-0.299-0.645-0.65-0.879-1.055
				c-0.234-0.402-0.365-0.826-0.391-1.27c-0.078-0.65-0.078-1.543,0-2.675c0.078-1.133,0.221-2.291,0.43-3.477
				c0.208-1.185,0.475-2.311,0.801-3.379C59.247,22.763,59.618,21.969,60.035,21.448z M65.425,13.127
				c-0.078,0.287-0.229,0.566-0.449,0.84c-0.222,0.273-0.469,0.495-0.742,0.664c-0.273,0.17-0.554,0.28-0.84,0.332
				c-0.287,0.053-0.521,0-0.703-0.156c-0.547-0.416-0.834-0.865-0.859-1.348c-0.026-0.481,0.091-0.938,0.352-1.367
				c0.26-0.43,0.586-0.794,0.977-1.094c0.391-0.299,0.729-0.475,1.016-0.527c0.286-0.052,0.527,0.007,0.723,0.176
				c0.195,0.17,0.345,0.391,0.449,0.664c0.104,0.273,0.162,0.58,0.176,0.918C65.536,12.568,65.503,12.868,65.425,13.127z"/>
			<path style="fill:#ADADAD;" d="M87.507,28.362c-0.365,0.521-0.834,1.166-1.406,1.934c-0.573,0.769-1.166,1.537-1.777,2.304
				c-0.612,0.77-1.211,1.473-1.797,2.109c-0.586,0.639-1.074,1.088-1.465,1.348c-0.261,0.156-0.561,0.287-0.898,0.391
				c-0.339,0.104-0.684,0.17-1.035,0.195s-0.684,0.006-0.996-0.059s-0.586-0.176-0.82-0.332c-0.234-0.182-0.43-0.441-0.586-0.781
				c-0.131-0.285-0.254-0.664-0.371-1.133s-0.163-1.055-0.137-1.758c-0.625,1.043-1.315,1.844-2.07,2.402
				c-0.756,0.561-1.472,0.971-2.148,1.23c-0.781,0.287-1.563,0.455-2.344,0.508c-0.365,0-0.756-0.123-1.172-0.371
				c-0.417-0.246-0.769-0.637-1.055-1.172c-0.286-0.533-0.469-1.223-0.547-2.07c-0.078-0.846,0.026-1.855,0.313-3.027
				c0.364-1.588,0.943-3.033,1.738-4.336c0.794-1.302,1.66-2.415,2.598-3.34c0.938-0.924,1.861-1.621,2.773-2.09
				c0.911-0.469,1.666-0.677,2.266-0.625c0.703,0.131,1.275,0.339,1.719,0.625c0.364,0.261,0.605,0.645,0.723,1.152
				s-0.098,1.179-0.645,2.012c0.364-0.078,0.67-0.13,0.918-0.156c0.247-0.025,0.436-0.039,0.566-0.039
				c0.156,0,0.26,0.014,0.313,0.039c0.025,0.053,0.039,0.163,0.039,0.332c0,0.17-0.039,0.476-0.117,0.918
				c-0.078,0.443-0.195,1.042-0.352,1.797c-0.156,0.756-0.365,1.732-0.625,2.93c-0.053,0.234-0.098,0.449-0.137,0.645
				s-0.078,0.391-0.117,0.586s-0.085,0.424-0.137,0.683c-0.053,0.262-0.117,0.586-0.195,0.977c-0.026,0.234-0.033,0.488-0.02,0.762
				c0.013,0.273,0.059,0.527,0.137,0.762s0.201,0.424,0.371,0.566c0.169,0.145,0.41,0.215,0.723,0.215
				c0.26,0,0.599-0.162,1.016-0.488c0.416-0.324,0.859-0.742,1.328-1.25s0.957-1.066,1.465-1.68
				c0.508-0.611,0.982-1.204,1.426-1.777c0.442-0.572,0.84-1.08,1.191-1.523c0.352-0.442,0.605-0.768,0.762-0.977
				c0.208-0.234,0.416-0.371,0.625-0.41c0.208-0.039,0.364,0.02,0.469,0.176c0.104,0.156,0.123,0.391,0.059,0.703
				C88.008,27.581,87.82,27.946,87.507,28.362z M76.062,30.081c0.13-0.521,0.286-1.133,0.469-1.836
				c0.182-0.703,0.338-1.38,0.469-2.031c0.13-0.65,0.228-1.191,0.293-1.621c0.064-0.43,0.045-0.631-0.059-0.605
				c-0.131,0.026-0.273,0.065-0.43,0.117c-0.131,0.053-0.3,0.092-0.508,0.117c-0.209,0.026-0.417,0.065-0.625,0.117
				c0.208-0.416,0.332-0.762,0.371-1.035s0.045-0.488,0.02-0.645c-0.026-0.182-0.078-0.325-0.156-0.43
				c-0.287-0.234-0.788-0.045-1.504,0.566c-0.717,0.612-1.543,1.738-2.48,3.379c-0.391,0.678-0.703,1.4-0.938,2.168
				c-0.234,0.769-0.397,1.491-0.488,2.168c-0.092,0.677-0.111,1.269-0.059,1.777c0.052,0.508,0.156,0.84,0.313,0.996
				c0.286,0.287,0.611,0.424,0.977,0.41c0.364-0.012,0.735-0.117,1.113-0.313c0.377-0.195,0.755-0.449,1.133-0.762
				c0.377-0.313,0.716-0.637,1.016-0.977c0.299-0.338,0.547-0.65,0.742-0.937C75.925,30.419,76.036,30.211,76.062,30.081z"/>
			<path style="fill:#ADADAD;" d="M83.981,35.51c1.146-4.817,2.063-8.684,2.754-11.601c0.689-2.916,1.217-5.143,1.582-6.68
				c0.416-1.822,0.703-3.086,0.859-3.789c0.078-0.494,0.143-0.977,0.195-1.445c0.052-0.416,0.078-0.846,0.078-1.289
				c0-0.442-0.039-0.846-0.117-1.211c0.208-0.13,0.436-0.234,0.684-0.313c0.247-0.078,0.488-0.143,0.723-0.195
				c0.287-0.078,0.572-0.143,0.859-0.195c0.287-0.052,0.547-0.078,0.781-0.078c0.209,0,0.404,0.02,0.586,0.059
				s0.299,0.124,0.352,0.254c0.156,0.131,0.229,0.391,0.215,0.781s-0.045,0.795-0.098,1.211c-0.104,0.495-0.221,1.029-0.352,1.602
				c-0.313,1.12-0.742,2.734-1.289,4.844c-0.469,1.797-1.1,4.245-1.894,7.344c-0.795,3.1-1.791,7.005-2.988,11.718
				c-0.131,0.131-0.287,0.221-0.469,0.273c-0.183,0.053-0.352,0.078-0.508,0.078c-0.183,0-0.378-0.014-0.586-0.039
				c-0.183-0.053-0.365-0.131-0.547-0.234c-0.156-0.104-0.313-0.24-0.469-0.41C84.176,36.025,84.059,35.797,83.981,35.51z"/>
			<path style="fill:#ADADAD;" d="M93.375,43.439c-1.016,0.025-1.855-0.156-2.52-0.547c-0.664-0.391-1.185-0.957-1.563-1.699
				c-0.377-0.742-0.618-1.641-0.723-2.695c-0.104-1.055-0.104-2.207,0-3.457c0.131-0.963,0.365-1.965,0.703-3.008
				c0.287-0.885,0.723-1.861,1.309-2.929c0.586-1.067,1.374-2.109,2.364-3.125c0.207,0.053,0.377,0.111,0.508,0.176
				c0.129,0.065,0.234,0.137,0.313,0.215c0.078,0.104,0.129,0.195,0.156,0.273c0.051,0.287-0.027,0.612-0.234,0.977
				c-0.209,0.365-0.418,0.756-0.625,1.172c-0.574,1.198-1.002,2.332-1.289,3.398c-0.287,1.068-0.469,2.059-0.547,2.969
				c-0.053,0.781-0.045,1.49,0.02,2.129s0.162,1.186,0.293,1.641s0.273,0.807,0.43,1.055s0.299,0.371,0.43,0.371
				c0.129,0,0.266-0.092,0.41-0.273c0.143-0.182,0.279-0.404,0.41-0.664c0.156-0.26,0.338-0.658,0.547-1.191
				c0.207-0.533,0.43-1.152,0.664-1.855s0.461-1.465,0.684-2.285c0.221-0.82,0.422-1.646,0.605-2.48
				c0.363-1.666,0.754-3.547,1.172-5.644c0.416-2.096,1.027-4.29,1.836-6.582c0.26-0.963,0.586-2.018,0.977-3.164
				c0.313-0.989,0.709-2.142,1.191-3.457c0.48-1.314,1.035-2.74,1.66-4.277c0-0.13,0.109-0.254,0.332-0.371
				c0.221-0.117,0.475-0.24,0.762-0.371c0.313-0.13,0.664-0.26,1.055-0.391c0.52-0.182,0.93-0.286,1.23-0.313
				c0.299-0.025,0.527,0.014,0.684,0.117c0.156,0.104,0.26,0.241,0.313,0.41c0.051,0.17,0.078,0.358,0.078,0.566
				c0.051,0.859,0.084,1.667,0.098,2.422c0.012,0.756,0.031,1.42,0.059,1.992c0.025,0.678,0.039,1.289,0.039,1.836
				c0.025,0.729-0.014,1.699-0.117,2.91c-0.105,1.211-0.215,2.48-0.332,3.809s-0.223,2.624-0.313,3.887
				c-0.092,1.264-0.111,2.312-0.059,3.145c0,0.443,0.02,0.854,0.059,1.23c0.039,0.378,0.084,0.749,0.137,1.113
				c0.338-0.938,0.715-1.92,1.133-2.949c0.416-1.028,0.832-2.018,1.25-2.969c0.416-0.95,0.807-1.836,1.172-2.656
				c0.363-0.82,0.65-1.504,0.859-2.051c0.313-0.729,0.729-1.653,1.25-2.773c0.52-1.119,1.047-2.239,1.582-3.359
				c0.533-1.119,1.027-2.148,1.484-3.086c0.455-0.938,0.787-1.588,0.996-1.953c0.156-0.26,0.422-0.494,0.801-0.703
				c0.377-0.208,0.781-0.391,1.211-0.547s0.832-0.267,1.211-0.332c0.377-0.064,0.631-0.071,0.762-0.02
				c0.338,0.078,0.578,0.183,0.723,0.313c0.143,0.131,0.227,0.222,0.254,0.273c0.051,0.104,0.09,0.28,0.117,0.527
				c0.025,0.248,0.012,0.632-0.039,1.152c-0.053,0.625-0.203,1.576-0.449,2.852c-0.248,1.276-0.547,2.729-0.898,4.355
				c-0.352,1.628-0.73,3.366-1.133,5.215c-0.404,1.85-0.789,3.666-1.152,5.449c-0.365,1.784-0.684,3.457-0.957,5.019
				c-0.273,1.563-0.449,2.879-0.527,3.945c-0.053,1.197,0.025,2.252,0.234,3.164c0.078,0.391,0.195,0.768,0.352,1.133
				s0.363,0.684,0.625,0.957c0.26,0.273,0.572,0.475,0.938,0.605c0.363,0.131,0.793,0.17,1.289,0.117
				c-0.652,0.443-1.289,0.768-1.914,0.977s-1.238,0.313-1.836,0.313c-0.652,0.025-1.225-0.072-1.719-0.293
				c-0.496-0.221-0.912-0.533-1.25-0.938c-0.34-0.404-0.586-0.885-0.742-1.445s-0.209-1.178-0.156-1.855
				c0.051-0.625,0.221-1.654,0.508-3.086c0.285-1.432,0.631-3.053,1.035-4.863c0.402-1.81,0.846-3.697,1.328-5.664
				c0.48-1.966,0.938-3.814,1.367-5.547c0.43-1.731,0.801-3.223,1.113-4.473s0.508-2.07,0.586-2.461
				c0.051-0.313,0.098-0.605,0.137-0.879s0.084-0.514,0.137-0.723c-0.262,0.521-0.58,1.146-0.957,1.875
				c-0.379,0.729-0.775,1.511-1.191,2.344c-0.418,0.834-0.84,1.699-1.27,2.598s-0.84,1.765-1.23,2.598
				c-0.652,1.354-1.289,2.741-1.914,4.16c-0.625,1.42-1.186,2.768-1.68,4.043c-0.496,1.276-0.906,2.421-1.23,3.437
				c-0.326,1.016-0.516,1.797-0.566,2.344v0.547c0,0.156,0.006,0.34,0.02,0.547c0.012,0.209,0.045,0.404,0.098,0.586l-1.563,1.211
				c-0.234,0.078-0.438,0.143-0.605,0.195c-0.17,0.053-0.332,0.078-0.488,0.078c-0.6,0-1.055-0.313-1.367-0.938
				c-0.313-0.572-0.6-1.691-0.859-3.359c-0.262-1.666-0.34-3.71-0.234-6.132c0.051-1.197,0.137-2.408,0.254-3.633
				c0.117-1.224,0.234-2.396,0.352-3.516c0.117-1.119,0.227-2.168,0.332-3.145c0.104-0.977,0.156-1.816,0.156-2.52
				c0.025-0.521,0.012-0.996-0.039-1.426c-0.053-0.43-0.105-0.826-0.156-1.191c-0.234,0.6-0.496,1.413-0.781,2.441
				c-0.287,1.029-0.586,2.168-0.898,3.418s-0.633,2.565-0.957,3.945c-0.326,1.381-0.639,2.709-0.938,3.984
				c-0.301,1.276-0.58,2.455-0.84,3.535c-0.262,1.081-0.469,1.947-0.625,2.597c-0.262,1.043-0.521,2.227-0.781,3.555
				c-0.262,1.328-0.586,2.584-0.977,3.77s-0.898,2.188-1.523,3.008S94.363,43.414,93.375,43.439z"/>
			<path style="fill:#ADADAD;" d="M122.971,21.448c0.131-0.156,0.377-0.286,0.742-0.391c0.365-0.104,0.742-0.188,1.133-0.254
				c0.391-0.064,0.748-0.104,1.074-0.117c0.326-0.013,0.514-0.006,0.566,0.02c0.025,0.026-0.039,0.3-0.195,0.82
				c-0.156,0.521-0.352,1.133-0.586,1.836s-0.482,1.426-0.742,2.168s-0.455,1.348-0.586,1.816s-0.287,0.996-0.469,1.582
				s-0.346,1.159-0.488,1.719c-0.143,0.56-0.24,1.087-0.293,1.582c-0.053,0.496-0.014,0.873,0.117,1.133
				c0.131,0.313,0.273,0.527,0.43,0.645s0.326,0.176,0.508,0.176c0.521,0,1.178-0.285,1.973-0.859
				c0.795-0.572,1.602-1.256,2.422-2.051c0.82-0.793,1.582-1.601,2.285-2.421s1.225-1.478,1.563-1.973
				c0.209-0.26,0.424-0.43,0.645-0.508s0.404-0.064,0.547,0.039c0.143,0.104,0.221,0.273,0.234,0.508s-0.072,0.508-0.254,0.82
				c-0.416,0.729-1.029,1.596-1.836,2.598c-0.807,1.003-1.666,1.966-2.578,2.89c-0.912,0.926-1.803,1.713-2.676,2.363
				s-1.582,0.99-2.129,1.016c-0.443,0.025-0.879-0.045-1.309-0.215s-0.82-0.402-1.172-0.703c-0.352-0.299-0.645-0.65-0.879-1.055
				c-0.234-0.402-0.365-0.826-0.391-1.27c-0.078-0.65-0.078-1.543,0-2.675c0.078-1.133,0.221-2.291,0.43-3.477
				c0.209-1.185,0.475-2.311,0.801-3.379C122.184,22.763,122.555,21.969,122.971,21.448z M128.361,13.127
				c-0.078,0.287-0.229,0.566-0.449,0.84s-0.469,0.495-0.742,0.664c-0.273,0.17-0.553,0.28-0.84,0.332
				c-0.287,0.053-0.521,0-0.703-0.156c-0.547-0.416-0.834-0.865-0.859-1.348c-0.025-0.481,0.092-0.938,0.352-1.367
				s0.586-0.794,0.977-1.094c0.391-0.299,0.729-0.475,1.016-0.527c0.287-0.052,0.527,0.007,0.723,0.176
				c0.195,0.17,0.346,0.391,0.449,0.664s0.162,0.58,0.176,0.918C128.473,12.568,128.439,12.868,128.361,13.127z"/>
			<path style="fill:#ADADAD;" d="M141.947,37.111c-0.6,0-1.113-0.111-1.543-0.332s-0.775-0.514-1.035-0.879
				c-0.262-0.363-0.43-0.787-0.508-1.27c-0.078-0.48-0.053-0.996,0.078-1.543c0.078-0.363,0.207-0.852,0.391-1.465
				c0.182-0.611,0.371-1.275,0.566-1.992c0.195-0.716,0.377-1.432,0.547-2.148c0.168-0.716,0.279-1.367,0.332-1.953
				c0.051-0.586,0.025-1.067-0.078-1.445c-0.105-0.377-0.326-0.566-0.664-0.566c-0.418,0-0.848,0.137-1.289,0.41
				c-0.443,0.273-0.893,0.645-1.348,1.113c-0.457,0.469-0.912,1.01-1.367,1.621c-0.457,0.612-0.906,1.244-1.348,1.895
				c-0.234,0.886-0.43,1.66-0.586,2.324c-0.156,0.664-0.293,1.263-0.41,1.796c-0.117,0.535-0.229,1.004-0.332,1.406
				c-0.105,0.404-0.195,0.789-0.273,1.152c-0.078,0.262-0.313,0.516-0.703,0.762c-0.391,0.248-0.809,0.449-1.25,0.605
				c-0.443,0.156-0.826,0.234-1.152,0.234s-0.463-0.117-0.41-0.352c0.025-0.156,0.111-0.508,0.254-1.055s0.313-1.191,0.508-1.934
				s0.396-1.529,0.605-2.363c0.207-0.833,0.402-1.626,0.586-2.382c0.129-0.599,0.273-1.263,0.43-1.992
				c0.129-0.625,0.293-1.354,0.488-2.188c0.195-0.833,0.422-1.744,0.684-2.734c0.182-0.156,0.371-0.279,0.566-0.371
				c0.195-0.091,0.396-0.162,0.605-0.215c0.207-0.078,0.43-0.13,0.664-0.156c0.207,0,0.416,0.014,0.625,0.039
				c0.182,0.026,0.371,0.072,0.566,0.137c0.195,0.065,0.371,0.163,0.527,0.293c-0.078,0.183-0.17,0.437-0.273,0.762
				c-0.105,0.326-0.209,0.671-0.313,1.035c-0.105,0.417-0.234,0.847-0.391,1.289c0.338-0.469,0.723-0.943,1.152-1.426
				c0.43-0.481,0.898-0.918,1.406-1.309s1.047-0.709,1.621-0.957c0.572-0.247,1.158-0.371,1.758-0.371
				c0.494,0,0.938,0.144,1.328,0.43c0.391,0.287,0.695,0.684,0.918,1.191c0.221,0.508,0.352,1.113,0.391,1.816
				s-0.059,1.472-0.293,2.305l-0.43,1.719c-0.131,0.547-0.293,1.191-0.488,1.934s-0.438,1.556-0.723,2.441
				c-0.156,0.574-0.215,1.068-0.176,1.484c0.039,0.418,0.293,0.625,0.762,0.625s1.061-0.285,1.777-0.859
				c0.715-0.572,1.438-1.262,2.168-2.07c0.729-0.806,1.418-1.633,2.07-2.48c0.65-0.846,1.145-1.529,1.484-2.051
				c0.234-0.338,0.455-0.56,0.664-0.664c0.207-0.104,0.371-0.117,0.488-0.039s0.176,0.254,0.176,0.527s-0.105,0.619-0.313,1.035
				c-0.184,0.365-0.463,0.847-0.84,1.445c-0.379,0.6-0.828,1.237-1.348,1.914c-0.521,0.678-1.082,1.361-1.68,2.051
				c-0.6,0.691-1.225,1.316-1.875,1.875c-0.652,0.561-1.297,1.016-1.934,1.367C143.125,36.936,142.52,37.111,141.947,37.111z"/>
			<path style="fill:#ADADAD;" d="M161.1,28.674c-0.131,0.808-0.254,1.576-0.371,2.305c-0.117,0.73-0.189,1.316-0.215,1.757
				c-0.027,0.652,0.09,1.121,0.352,1.406c0.26,0.287,0.547,0.43,0.859,0.43c0.363,0,0.813-0.182,1.348-0.547
				c0.533-0.363,1.1-0.82,1.699-1.367c0.598-0.547,1.197-1.145,1.797-1.796c0.598-0.65,1.152-1.27,1.66-1.855s0.938-1.1,1.289-1.543
				c0.352-0.442,0.592-0.729,0.723-0.859c0.156-0.156,0.318-0.247,0.488-0.273c0.168-0.025,0.305,0,0.41,0.078
				c0.104,0.078,0.156,0.222,0.156,0.43c0,0.209-0.105,0.469-0.313,0.781c-0.313,0.495-0.717,1.074-1.211,1.738
				c-0.496,0.664-1.043,1.348-1.641,2.05c-0.6,0.703-1.23,1.395-1.895,2.07c-0.664,0.678-1.328,1.277-1.992,1.797
				c-0.664,0.521-1.303,0.943-1.914,1.27c-0.613,0.326-1.166,0.488-1.66,0.488c-0.365,0-0.711-0.104-1.035-0.313
				c-0.326-0.209-0.619-0.482-0.879-0.82c-0.262-0.338-0.463-0.715-0.605-1.133c-0.145-0.416-0.203-0.832-0.176-1.25
				c0.025-0.182,0.064-0.494,0.117-0.938c-1.094,1.225-2.195,2.195-3.301,2.91c-1.107,0.717-2.168,1.074-3.184,1.074
				c-0.365,0-0.756-0.092-1.172-0.273c-0.418-0.182-0.789-0.48-1.113-0.898c-0.326-0.416-0.594-0.963-0.801-1.641
				c-0.209-0.676-0.287-1.496-0.234-2.461c0.078-1.509,0.377-2.942,0.898-4.296c0.52-1.354,1.178-2.532,1.973-3.535
				c0.793-1.002,1.691-1.797,2.695-2.383c1.002-0.586,2.012-0.879,3.027-0.879c0.441,0,0.846,0.111,1.211,0.332
				c0.363,0.222,0.676,0.508,0.938,0.859c0.26,0.352,0.475,0.736,0.645,1.152c0.168,0.417,0.293,0.808,0.371,1.172
				c0.182-0.755,0.352-1.497,0.508-2.227c0.156-0.729,0.313-1.419,0.469-2.07c0.26-0.963,0.533-2.005,0.82-3.125
				c0.26-0.963,0.559-2.07,0.898-3.32c0.338-1.25,0.715-2.564,1.133-3.945c0.26-0.208,0.508-0.364,0.742-0.469
				c0.234-0.104,0.455-0.182,0.664-0.234c0.234-0.078,0.455-0.117,0.664-0.117c0.26,0,0.494,0.033,0.703,0.098
				c0.207,0.065,0.383,0.234,0.527,0.508c0.143,0.273,0.24,0.684,0.293,1.23c0.051,0.547,0.051,1.289,0,2.227
				c-0.053,1.146-0.254,2.396-0.605,3.75c-0.352,1.354-0.814,2.754-1.387,4.199c-0.574,1.445-1.23,2.891-1.973,4.336
				S161.959,27.373,161.1,28.674z M158.795,29.182c0.104-0.494,0.201-0.989,0.293-1.484c0.09-0.494,0.201-1.002,0.332-1.523
				c-0.053,0.026-0.098,0.053-0.137,0.078c-0.039,0.026-0.086,0.053-0.137,0.078c-0.287,0.131-0.482,0.124-0.586-0.02
				c-0.105-0.143-0.156-0.371-0.156-0.684c0-0.156-0.014-0.436-0.039-0.84c-0.027-0.403-0.098-0.82-0.215-1.25
				s-0.293-0.807-0.527-1.133c-0.234-0.325-0.561-0.488-0.977-0.488c-0.6,0-1.211,0.307-1.836,0.918
				c-0.625,0.612-1.211,1.354-1.758,2.227c-0.547,0.873-1.004,1.804-1.367,2.793c-0.365,0.99-0.574,1.875-0.625,2.656
				c-0.053,1.25,0.104,2.148,0.469,2.695c0.363,0.547,0.859,0.82,1.484,0.82c0.469,0,0.982-0.182,1.543-0.547
				c0.559-0.363,1.105-0.807,1.641-1.328c0.533-0.52,1.027-1.055,1.484-1.601C158.137,30.002,158.508,29.547,158.795,29.182z"/>
		</g>
	</g>
</g>
</svg>
