<?xml version="1.0" encoding="utf-8"?>
<!-- Generator: Adobe Illustrator 16.0.0, SVG Export Plug-In . SVG Version: 6.00 Build 0)  -->
<!DOCTYPE svg PUBLIC "-//W3C//DTD SVG 1.1//EN" "http://www.w3.org/Graphics/SVG/1.1/DTD/svg11.dtd">
<svg version="1.1" id="Layer_1" xmlns="http://www.w3.org/2000/svg" xmlns:xlink="http://www.w3.org/1999/xlink" x="0px" y="0px"
	 width="1320px" height="825px" viewBox="0 0 1320 825" style="enable-background:new 0 0 1320 825;" xml:space="preserve">
<g id="map_1_">
	<path style="fill:#ECECEC;" d="M548.624,222.834c2.606,0,1.639-3.806,5.291-2.824c4.871,1.827,7.688,5.93,14.473,5.653
		c4.475-3.373-6.309-6.255-2.615-8.437c1.968,0.714,3.332,2.079,5.261,2.784c1.04-4.857-1.476-5.938-2.646-8.442
		c10.879-0.603,7.308-14.779,5.333-22.51c3.224-1.139,7.039-1.83,11.807-1.387c-0.342-6.215-7.079-5.566-10.504-8.473
		c4.104,0.683,2.943-4.281,7.865-2.825c0.941-4.275-2.261-4.105-1.314-8.444c4.709,0.775,3.248-4.986,7.928-4.221
		c3.298-1.154,11.335,2.771,10.55-2.791c1.213-5.126-5.723-1.429-6.591-4.245c-3.116-0.412-2.478-4.868-6.597-4.214
		c-5.702-0.845-11.841,5.079-14.5,2.848c0.815-7.114,11.611-3.585,13.163-9.859c-2.743-4.089-8.529-4.923-15.845-4.231
		c-4.245-1.619-9.495-3.718-11.839,0c-1.104-2.066-4.2-2.045-6.567-2.854c-5.308,3.746-18.245-0.669-23.674,2.854
		c-6.097,0.142-13.405-1.136-15.877,2.832c-0.117,3.062,3.607,9.117,1.287,9.805c-9.509-1.597-14.876,0.978-23.643-1.395
		c-13.212,1.95-19.372,11.192-32.973,12.697c-1.252,5.08,5.916,1.13,5.233,5.649c-3.806,3.4-10.863,3.315-14.433,7.028
		c-3.254-1.828-7.528-1.542-9.253,4.202c4.213-1.22,4.078,2.214,6.579,2.774c-0.041-3.725,6.598-3.725,6.598,0
		c3.207-0.826,8.959-6.252,9.211,1.459c-5.627,0.56-13.541-1.38-17.14,1.402c1.208,5.261,6.196,6.484,10.57,8.404
		c4.062,1.029,2.487-3.863,6.569-2.794c4.015,2.777,8.081,5.459,15.826,4.232c-1.072,6.251,0.905,9.356,2.647,12.654
		c-0.443,3.292-2.097,5.311-1.318,9.843c5.258,2.754,6.084-6.472,9.244-1.368c0.719,5.017-3.986,4.271-7.926,4.192
		c1.111,6.314,10.019,4.348,11.835,9.859c-2.991,2.43-6.635,4.125-9.226,7.046c3.71,1.838-4.095,2.896-2.609,7.027
		c9.393,6.795,2.111,22.882,9.179,32.387h9.254c3.824,0.17,2.3,5.979,6.565,5.608c1.332-2.819,2.285-6.013,5.307-7.067
		c-1.598-10.609,6.567-10.745,5.283-21.09c3.366-0.113,1.846-5.47,5.225-5.624c5.034,2.859,5.034-3.337,10.577,0
		c2.091-1.925,4.137-3.981,6.605-5.584c6.361-1.707,9.17-7.128,15.785-8.458c0.534-5.078,11.637-6.305,7.905-11.275
		C557.844,228.877,552.302,223.241,548.624,222.834 M561.825,217.227c-3.527-2.516,0-9.304,3.947-8.424
		C565.103,212.263,562.244,213.459,561.825,217.227 M571.033,149.649c-0.092,4.174-2.975,5.23-5.261,7.023
		c-4.037-2.731-9.993-3.356-17.148-2.819C553.092,148.062,565.438,150.534,571.033,149.649"/>
	<path style="fill:#ECECEC;" d="M385.231,170.805v8.394c4.009-0.975,4.777,1.457,7.854,1.419c0.605-6.412,8.56-12.413,13.202-9.813
		c1.999,5.891-6.827,0.184-6.562,4.19c3.976,2.119-4.561,2.527-3.974,5.622c3.431-0.864,4.695,0.568,3.974,4.193
		c-3.103,0.052-3.899-2.428-7.934-1.352c0.195,3.988-4.429,2.745-2.624,8.433c7.863-1.092,13.547-1.957,17.119,4.182
		c-10.461,2.421-17.21-5.557-23.724-2.792c-1.046,6.775,7.985,2.757,7.944,8.488c9.939-1.523,23.279,6.239,26.324-4.255
		c3.438,0.429,5.656-0.526,5.272-4.232c0.979-3.821-6.148,1.036-5.272-2.806h9.254c-0.044-7.503,8.036-6.45,6.583-15.479
		c6.817-0.22,7.466-7.015,15.88-5.666c1.609-3.379,4.197-5.679,9.167-5.621c1.691-3.482-2.931-6.818,0-7.038
		c5.527-2.69,13.611,1.416,15.818-7.023c0-2.308-3.678-0.754-3.918-2.808c-21.587,3.131-51-4.096-73.864,5.619
		c-1.764,8.499,5.679,7.079,6.583,12.695c-8.564,0.719-5.962-10.549-15.772-8.483c-0.421,1.942-1.936,2.708-1.332,5.675
		c-2.125,0.094-4.58-0.227-3.969,2.808C380.115,169.657,384.701,168.067,385.231,170.805 M412.897,196.073
		c0.679,0.738-0.976,1.869-1.345,1.44C410.873,196.789,412.513,195.682,412.897,196.073"/>
	<path style="fill:#ECECEC;" d="M709.4,167.929c0.687-3.946,6.906-2.029,5.301-8.417c-12.05-2.065-23.586-2.515-34.282-2.839
		c-0.094,2.503,0.31,4.423,1.292,5.673C690.037,165.189,696.871,169.623,709.4,167.929"/>
	<path style="fill:#ECECEC;" d="M658.049,174.995c-0.17,3.483-2.476,4.354,0,7.04c5.413-0.3,5.602-6.239,11.818-5.663
		c-0.313,6.276-6.459,6.263-6.555,12.685c2.201,1.879,4.416,3.7,9.254,2.835c-0.635,4.394,2.773,4.498,6.566,4.183
		c1.143-5.277,2.29-10.604,3.951-15.456c3.476,3.743,5.488,9.168,14.508,7.052c1.166-10.725-6.969-11.38-10.543-16.866
		c-0.397,3.283-3.547-1.646-5.338-1.475c-3.201,0.251-5.408-0.709-6.484-2.775c3.071-3.75-1.119-8.263-6.638-7.042
		c-3.869,2.275,2.089,7.295-1.336,8.417c-2.798-6.671-15.384-13.271-15.845,0C652.042,172.021,657.089,171.267,658.049,174.995"/>
	<path style="fill:#ECECEC;" d="M791.104,165.154c-0.119-8.895-12.249-5.859-11.822,1.4
		C783.777,170.936,786.209,164.6,791.104,165.154"/>
	<path style="fill:#ECECEC;" d="M864.985,173.575c10.357-1.874,21.229,4.905,23.679-4.245c-3.096-5.431-15.152-7.727-22.358-4.177
		C863.34,165.322,865.67,171.072,864.985,173.575"/>
	<path style="fill:#ECECEC;" d="M1131.191,258.025c3.091-0.458,2.454-4.85,6.526-4.185c6.896,0.135,5.963,8.666,14.504,6.973
		c1.729-2.496-1.177-7.065,1.342-11.211c-3.506-1.718-8.623-9.249-11.832-2.835c0.407-3.257-0.246-5.393-1.306-7.027
		c-7.184-2.757-10.995-9.008-22.413-7.046c-1.526-2.618-5.099-2.994-6.598-5.637c-8.624,1.224-10.463-4.817-19.803-2.831
		c-1.823,4.133,3.634,7.205,0,8.467c-3.813-0.612-3.114-6.082-6.56-7.031c-3.877,4.353-10.994,0.414-18.561,2.824
		c-4.707-3.293-4.356-12.159-14.396-9.844c-1.909,0.316-0.445,4.192-2.673,4.192c-5.494-2.548-10.854-5.309-15.787-8.385
		c-0.595,1.227-1.157,2.448-2.617,2.777c1.641-5.533-3.159-4.2-6.625-4.2c3.247-3.342-1.426-3.189-2.585-5.67
		c-6.354,2.481-5.89-0.81-11.875-1.378c-0.462,1.877-3.344,1.156-5.268,1.378c-1.324,2.631,3.93,4.722,0,5.67
		c-11.333-1.918-25.72,2.498-35.642,0c-3.32-0.897-4.598-5.207-7.854-4.224c-6.105,1.49-10.172-1.469-14.541-2.825
		c-1.539-0.563-3.626,0.313-5.22,0c-3.304-0.67-5.805-4.484-13.172-2.875c0.5-3.609,3.88-4.238,3.926-8.404
		c-1.861-4.135-6.088-5.677-7.895-9.887c-3.982,1.886-10.094,1.483-15.825,1.457c-3.298-1.188-2.767-6.389-7.913-5.65
		c-3.094,1.416-4.208,4.851-3.952,9.856c-6.54-2.274-4.2,4.931-9.228,4.224c-2.525-0.58-1.063-5.474-5.268-4.224
		c-3.417,3.867-8.188,6.313-15.778,5.6c-2.345,1.815-3.496,4.779-7.91,4.27c-1.86,1.785-0.61,6.866-4.024,7.012
		c-2.711,0.889-9.111-2.284-7.815,2.813c0,5.167,7.661,2.064,6.548,8.474c-4.848-1.522-6.152-6.586-13.214-5.616
		c0,3.675,0.74,8.26-2.64,8.428c-1.521-1.674-1.521-5.028-1.316-8.428c-5.139-1.236-2.121,6.113-7.881,4.2
		c-2.064-2.516-1.803-7.518-7.904-5.659c-3.721,5.92-8.759,10.401-13.225,15.489c-8.538,0.672-7.892-2.626-17.097-2.831
		c-2.133,6.948,6.817,2.141,5.257,8.467c-5.498-1.365-11.403,0.714-19.774,0c-5.937,2.571-9.178,8.022-15.806,9.836v-8.445
		c-3.273,0.23-6.348,0.252-7.894-1.392c0.321,7.878,0.054,15.036-7.913,14.073c0.44,5.205-4.823,4.213-7.91,5.639
		c-3.258,1.881,2.346,4.222-1.34,5.619c-7.713,1.658-8.162-10.188-7.874-12.628c6.116,0.034,12.849-0.626,17.124,1.371
		c3.521-8.821-7.406-13.374-15.837-14.073c-2.058-3.422-5.608-5.244-10.491-5.637c-1.831-3.265-3.734-6.301-6.625-8.415H698.85
		c-3.564,2.665-6.939,5.705-10.471,8.415c-0.604-2.061-1.728,0.59-4.019,0c-4.701,5.327-10.604,9.298-15.771,14.119
		c-1.487,6.415-4.134,11.559-7.912,15.428c-0.252-1.63-2.428-1.156-3.959-1.376v5.584c-8.375,0.554-9.242,8.917-11.903,15.518
		c2.662,3.317,3.045,8.993,2.662,15.459c1.276,3.806,8.33,1.517,10.573,4.25c-2.883,4.148-5.282,5.694-5.282,9.874
		c2.807-0.677,2.476,1.962,2.619,4.217c-4.688,0.092-7.639,2.181-11.833,2.754c-1.214,2.54-3.734,3.617-2.681,8.482
		c-7.485-2.383-2.937,8.111-9.214,7.023c0.212,1.671-0.271,2.509-1.368,2.809c-5.781-0.612-6.945,3.822-10.539,5.679
		c-3.175,0.756-6.719,1.195-6.502,5.608c1.698,1.917,5.705,1.376,9.161,1.418c-0.622,6.353,6.117,4.755,5.319,11.271
		c-1.357,1.87-1.321,5.231-3.999,5.61c-6.134-3.361-11.585,1.262-19.732,0c-1.333,4.649,2.934,15.328-2.69,15.503
		c0.973,4.133,4.012,6.076,2.69,12.658c6.122-1.403,7.966,1.833,11.882,2.79c4.918-2.694,5.573-2.694,10.51,0
		c2.991-5.689,7.533-9.813,6.565-19.702c5.792-1.797,4.813-10.8,11.86-11.25c5.597,3.516,7.849-0.986,13.234-1.404
		c-3.729,5.475-1.846,14.266,0,21.119c8.338-0.806,3.153-7.975,3.92-15.508c-1.332-0.024-1.656-2.477,0-2.807v2.807
		c2.72,0.427,2.622,3.771,3.997,5.66c6.383,0.149,10.355,2.87,11.805,8.454c-0.217,3.047-3.293,2.986-6.611,2.767
		c-0.17,4.938,4.667,4.436,6.611,7.074c-0.621-6.339,3.551-7.476,6.589-9.841c0.738-3.178-2.492-2.012-2.649-4.272
		c2.439-4.396,4.472,4.758,6.668,0c-3.619-7.436-20.006-8.686-15.813-19.659c3.914,6.434,11.357,9.466,15.813,15.477
		c0.733,1.072,1.861,4.378,2.574,5.637c1.03,1.758,3.202,3.375,2.666,5.584v8.443c1.703,1.915,5.739,1.384,9.232,1.421
		c2.203-4.842-2.369-11.768,1.279-16.903h3.946c-1.469,5.551-0.219,5.253-1.266,11.224c2.948-0.483,1.755,4.086,3.933,5.679
		c4.794,3.588,13.595,2.487,17.116,0c3.947,2.043-3.429,7.311,2.618,7.063c5.435,1.036,0.286-9.111,6.653-7.063v8.423
		c-3.878,2.481-1.219,11.927-6.653,12.667c-9.587-3.746-21.539-5.069-34.278-5.59c-3.8,1.069-3.142,6.935-6.563,8.475
		c-6.059-6.69-18.055-7.057-23.67-14.098c1.007-4.873-1.512-5.972-2.654-8.465c3.075-0.392,3.011-3.771,1.279-5.623
		c-7.969-0.103-14.31,1.585-19.777,4.211c-10.685-0.667-19.958,0.199-25.063,5.671c-1.122-2.961-3.81-4.34-7.871-4.259
		c-1.093,4.957-5.828,5.956-9.199,8.465c-3.584,6.612-2.242,15.241-5.242,21.095c-1.977,3.712-9.051,7.519-11.912,11.28
		c-0.217,8.231-3.247,13.427-6.609,18.302v36.577c4.559,5.473,8.54,11.583,10.584,19.686c6.068,3.838,10.145,9.849,18.431,11.259
		c5.315-1.391,11.611-1.693,18.456-1.391c2.727-2.282,2.542-7.587,7.956-7.046c2.353,0.232,0.75,4.764,2.664,5.608
		c6.07-0.893,8.395,2.26,13.124,2.828c2.254-1.232,3.354-3.927,7.916-2.828c1.324,10.881-2.806,15.856-2.663,25.385
		c3.759,7.215,10.188,12.676,7.926,22.503c3.48,4.731,3.721,12.903,5.276,19.701c-3.261,6.397-2.508,16.96-5.276,23.906
		c5.65,5.733,9.724,13.063,11.914,22.542v12.674c5.836,7.311,5.688,21.034,11.822,28.152c12.672-0.984,19.021-8.697,30.32-11.25
		c2.004-7.743,6.006-13.264,11.822-16.902c-0.66-5.459,2.373-6.882,1.287-12.674c2.367-1.271,3.385-3.926,7.939-2.837
		c0.145-16.231,5.521-26.864,15.849-32.361c1.927-11.457,1.927-27.951,0-39.39c2.781-5.456,5.038-11.446,6.521-18.305
		c3.158-2.28,5.813-5.051,9.258-7.052c6.271-9.716,11.96-20.091,18.475-29.512c1.002-5.284,2.752-12.467-1.36-15.514
		c-5.636-0.85-5.319,4.603-10.486,4.234h-11.888c-0.63-9.639-7.193-12.979-11.898-18.297c1.17-9.254-7.823-7.588-5.254-18.327
		c-2.236-3.196-6.345-4.478-7.893-8.423c1.25-4.24-1.892-10.949,0-11.25c3.139,2.409,6.68,9.793,5.243,12.652
		c5.536,5.896,9.189,13.63,14.521,19.719c3.15,5.856,2.648,14.648,9.259,19.691c9.183-3.267,15.633-9.519,26.321-11.3
		c1.847-0.822,0.234-5.392,2.607-5.579c5.723-0.986,8.118-5.462,13.209-7.081c-0.939-6.137,3.866-6.251,3.975-11.224
		c-2.278-5.071-9.065-5.375-7.951-14.057c-4.982-0.698-8.382,0.391-10.521,2.743c-1.085-5.317-5.945-6.739-5.3-14.049
		c-4.256,0.368-3.808-4.324-6.537-5.621c1.957-0.746,3.307-2.038,5.261-2.823c7.28,4.86,5.096,19.863,18.462,18.312
		c0.534,2.709,3.736,2.589,2.611,7.047c6.378,0.695,7.315-4.36,13.205-4.207c1.345,0.885,1.369,3.192,3.947,2.828
		c9.167-1.473,11.452,4.628,17.057,6.981c-2.179-0.489-2.456,1.114-2.551,2.846c1.36,2.692,6.031,1.904,7.924,4.219
		c-0.697,4.429,2.355,4.957,1.229,9.852c4.013,4.687,5.712,11.777,7.937,18.307c2.786,2.69,5.502,5.391,6.657,9.818v8.502
		c1.646,1.948,5.699,1.346,9.179,1.379c1.75-8.989,6.466-14.683,5.253-26.747h5.294v-5.662c4.978,2.098,2.549-3.809,6.563-2.765
		c-0.37-6.474,4.822-7.099,6.616-11.281c3.201-2.681,6.938-4.769,11.844-5.621c2.995,3.866,3.009,10.889,7.947,12.718
		c0.46,3.303-2.428,2.979-1.405,6.949c1.482,4.596,10.486,1.06,13.26,4.217c-1.771,2.986,0.661,4.193-1.354,8.493
		c3.442,1.464,5.871,4.033,6.586,8.436c-0.482,2.66-3.756,2.542-2.611,7.057c0.401,4.245,4.065,5.001,2.611,11.253
		c6.347,5.858,12.331,12.171,19.763,16.896c0.354-9.299-6.2-11.153-6.557-19.734c-3.673-2.694-7.174-5.487-9.245-9.855
		c0.608-4.558-1.736-12.136,2.621-12.658c2.888,3.997,4.965,8.854,10.625,9.844c0.983,1.297,1.385,3.167,1.235,5.618
		c12.81-1.797,15.924-13.976,14.495-30.928c-1.686-1.429-4.848-1.402-6.571-2.813c1.678-6.209-6.316-5.783-2.632-9.871
		c3.858-3.926,3.435,4.63,9.203,2.822c0.953-6.029,7.648-5.967,14.514-5.649c4.184-6.78,9.795-12.001,11.844-21.124
		c2.143,0.41,2.263-1.309,3.958-1.35c2.209-5.718-0.296-16.276,3.978-19.685c-2.812-1.295-3.978-4.177-3.978-8.524
		c-2.222-1.756-5.129-2.891-5.237-7.008c-0.584-3.377,2.429-3.078,1.279-7.024c2.728,0.431,4.159-0.283,3.958-2.889
		c3.78-1.776-5.938-8.396,2.667-8.396c1.495,4.492,6.054,5.668,7.927,9.864c-1.292,7.431,2.473,9.56,6.618,11.273
		c7.895-6.134-0.278-21.608,3.923-32.359c2.767-2.673,6.739-4.064,10.544-5.655c3.04-6.588,5.733-13.525,10.479-18.299
		c1.827-11.333-2.993-23.021,0-30.967c-1.795,8.035,3.043,8.987,3.979,14.075c0.257,8.726,0.654,17.151,6.618,19.683
		c2.452-2.49-1.075-3.559,0-8.398c3.594-0.167,2.652,2.341,5.258,0c0.231-4.473-3.5-4.779-2.605-9.903
		c-4.761-0.96-6.006-5.744-7.937-9.827c-0.489-5.066,0.473-11.771-3.912-12.676c-2.754,0.354-0.358,6.255-3.943,5.658
		c-2.23-10.363-11.183,6.468-14.563-4.217c0.913-3.288,3.339-4.849,5.312-7.033c1.513-4.491,0.985-11.101,5.277-12.731
		c3.025,3.479,2.403-2.066,6.516-1.389c6.218,0.937,11.96,3.691,19.833,2.843c-0.458,2.401,1.016,2.684,2.588,2.791
		c1.737-1.943,5.771-1.342,9.26-1.423c0.665-4.439-2.344-4.936-1.31-9.822c2.675-0.403,2.562-3.798,5.263-4.227
		c2.707,0.429,2.593,3.824,5.277,4.227c-0.612-3.094,3.922-7.766,5.223-4.227c-4.21,9.035-10.396,16.049-11.838,28.134
		c0.858,3.801,3.769,5.373,5.298,8.462c0.585,5.391,1.553,10.541,5.239,12.647c3.29-3.539,5.227-8.496,9.237-11.281
		c-1.203-6.958,4.223-5.93,1.389-11.219c0.33-2.849,3.479-2.78,3.899-5.626c-1.938-1.674-5.906-1.259-5.288-5.645
		c1.3-12.354,9.947-9.686,19.791-8.457c1.907-2.158,1.722-6.552,3.953-8.412c7.688-0.611,13.472-4.478,18.404-4.252
		C1137.718,263.253,1131.194,264.127,1131.191,258.025 M688.379,273.527c2.471,2.933,5.959,4.808,10.471,5.624v14.072
		c-2.959-0.575,0.744-8.275-5.23-5.618c-2.914,4.857-1.072,14.763-5.24,18.31c-4.395,0.437-7.637-0.677-10.607,0
		c-3.664,0.788-4.436,4.065-7.904,4.217c0.423-1.726-3.771-4.868-3.9-1.426c-3.094-0.408-3.094-3.832,0-4.232
		c-3.016-3.366-5.084-7.763-5.29-14.077c6.577,0.604,4.042,19.827,15.803,14.077c2.962-5.717,4.996-12.46,7.88-18.323
		c-0.437-3.228-1.583-5.778-2.649-8.456c0.786-13.225,10.179-17.287,14.489-26.714c1.593-0.188,2.403,0.312,2.649,1.425
		C697.793,262.074,687.169,261.44,688.379,273.527 M702.852,283.357c-0.082-4.247,4.652-3.465,7.893-4.206
		C710.852,283.504,706.783,283.347,702.852,283.357 M713.395,228.487c-0.693-0.757,0.952-1.811,1.307-1.43
		C715.364,227.813,713.764,228.877,713.395,228.487 M737.132,431.188c-0.685-0.743,0.938-1.841,1.286-1.443
		C739.141,430.445,737.483,431.58,737.132,431.188 M738.418,256.604c-0.686-0.72,0.936-1.779,1.322-1.376
		C740.396,255.953,738.775,257.004,738.418,256.604 M835.934,234.085c-2.504-0.577-5.656-0.453-5.264-4.206
		c-3.944-0.278,1.237-5.854,0,0C831.609,232.129,837.093,229.56,835.934,234.085 M917.597,208.803
		c-0.639-0.715,1.011-1.872,1.405-1.446C919.702,208.112,918.001,209.174,917.597,208.803 M921.598,207.356
		c-0.667-0.725,0.966-1.779,1.312-1.378C923.593,206.639,921.996,207.756,921.598,207.356 M925.549,204.531
		c-0.681-0.715,0.96-1.818,1.345-1.428C927.556,203.89,925.917,204.905,925.549,204.531 M984.899,381.874
		c1.844-2.67,2.917-6.212,7.925-5.584c0.054,2.182-0.641,5.347,1.279,5.584C992.117,386.111,988.336,380.715,984.899,381.874"/>
	<path style="fill:#ECECEC;" d="M517.003,548.003c-2.314-2.645-3.87,0.589-6.581,1.382c-2.076-4.821-7.188-6.427-11.823-8.485h-9.23
		c-2.362-4.068-11.19-1.205-11.88-6.995c-3.516-0.005-7.794,0.787-7.873-2.827c3.793-6.565-3.908-24.537-15.854-18.251
		c-4.165-2.635-7.196-6.404-7.89-12.726c-6.889-2.047-11.795-6.17-18.497-8.42c-1.716,0.518-2.053,2.456-3.936,2.802
		c-1.785-5.069-8.207-5.305-9.266-11.237c-4.206-1.261-2.716,3.609-5.243,4.228c-3.064-0.99-3.491-4.688-6.596-5.629
		c-1.196,2.445-2.398,4.855-6.583,4.208c-2.029,5.849-7.292,8.132-10.521,12.686c0.301-4.646-1.601-6.799-5.31-7.057
		c-3.385,1.484-4.889,5.061-9.275,5.618c-3.078-6.868,1.387-13.379,0-22.545c-2.378-4.881-11.116-3.023-15.759-5.581
		c1.309-6.145,5.135-9.523,3.96-18.305c-6.387,0.853-6.733,0.853-13.159,0c-2.427,3.034-1.265,9.885-5.289,11.224
		c-17.635,1.022-6.611-24.13-10.542-35.171c4.665-1.172,7.444-4.212,11.879-5.601c7.204-0.667,8.896,4.517,15.775,4.186
		c-0.104-1.97-0.272-3.939,1.336-4.186c6.348,0.332,14.828-1.797,15.807,4.186c-0.567,8.156,2.908,11.978,9.215,12.707
		c-1.577-7.256-0.876-9.462,0-14.102c-1.487-2.108-3.751-3.447-3.947-7.05c2.216-9.324,8.038-14.885,17.109-16.901
		c1.216-4.097,1.216-4.29,0-8.423c3.083,0.408,5.069-0.225,6.67-1.421c-3.288-7.713,4.282-6.01,2.586-15.482
		c4.39-1.891,8.564-3.917,13.157-5.613c0.693-4.429-3.994-3.199-2.613-8.436c4.823-4.26,12.136-5.84,18.516-8.458
		c0.913,3.824-2.678,2.849-2.678,5.631c5.274-2.346,10.867-4.329,14.527-8.423c-3.254-2.205-9.822-0.875-9.253-7.049
		c0.732-3.908,5.06-3.921,7.928-5.608c0.53-3.424-2.429-3.048-1.351-7.057c6.411,4.635,13.837-6.811,18.451-4.227
		c-3.045,7.539-9.317,11.595-11.852,19.683c4.881,1.018,5.671-2.393,10.509-1.373c0.122,2.179-0.582,5.357,1.343,5.631
		c1.309-3.484,5.052,1.926,9.232,0c-0.64-3.24-2.588-7.188,0-9.868c-4.812-0.489-6.033-4.818-7.923-8.467
		c0.451-8.718,0.451-9.477,0-18.314c-2.531-2.6-3.283-0.086-6.565,0c0.14-6.654-6.095-6.634-6.596-12.631
		c1.013-1.213,1.403-3.194,1.313-5.618c-5.08-3.089-3.242-13.523-10.574-14.099c-0.671,2.061,1.584,7.282-1.307,7.067
		c-2.717-0.837-8.66,1.76-9.228-1.455V272.11c-7.057,3.387-5.768-3.28-11.88-4.224c-3.469,3.874-2.844-1.647-6.547-1.389
		c-3.196-0.565-2.851,2.552-6.61,1.389c1.969,14.028-3.572,21.912-1.336,32.369c-2.236,0.411-6.556-3.983-7.92,0
		c1.326,4.018,4.402,0.905,5.304,2.804c-4.611,3.071-4.706,10.915-6.583,16.921c-3.019-4.305-3.608-11.213-5.244-16.921
		c-2.689-2.804-2.615,0.652-5.276,1.415c-1.137-4.069-1.965-1.522-5.31-1.415c-3.931-4.24-8.385-7.904-14.433-9.835
		c2.074-7.001-4.645-4.486-4.067-9.866c2.87,0.68,2.568-2.003,2.703-4.203c4.354-2.406,6.208-7.408,10.53-9.876
		c2.908-4.933,4.932-10.719,11.909-11.252c0.092-2.509-1.623-2.958-1.332-5.619c8.891-1.875,13.851-3.044,19.72-5.639
		c-0.283-5.443,0-10.39,1.336-14.073c-1.551-2.059-4.985-2.202-6.562-4.207c5.226-0.463,9.735-0.062,11.828,2.79
		c2.472-4.274,6.327,1.632,10.55,0c-1.833,7.164,6.022,3.909,5.272,9.903c-1.29,10.312-15.637,6.705-17.135,16.846
		c2.179,3.342,7.683,3.081,13.2,2.788c8.183,3.958,11.427,13.188,22.432,14.111c-2.948-7.29,2.201-7.099,1.325-15.474
		c-0.583-3.662-3.995-4.243-4.005-8.47c5.026,0.312,6.406,4.468,10.57,5.624c-0.374-3.657-0.481-7.002,3.954-5.624
		c-0.925-4.321,1.335-5.124,1.276-8.45c-3.559,0.987-2.492-2.889-3.936-4.205c-4.499-0.797-7.93-2.739-11.865-4.24
		c0.377-2.871,3.599-2.716,4.005-5.599c-1.703-3.376-5.807-4.176-5.337-9.844h-11.826c0.63-4.456-3.542-3.714-3.948-7.073
		c-5.618-0.808-8.719,1.02-13.188,1.457c0.78-8.729-10.416-5.958-11.884-1.457c0.492-5.243-1.049-8.246-5.262-8.467
		c-6.806,4.48-14.717,18.867-6.583,26.776c1.938,0.786,6.767-1.595,6.583,1.397c-1.418,4.136-4.17,6.782-6.583,9.903
		c-3.369-3.479,2.77-3.053,1.339-8.485c-4.507-3.155-8.784-6.597-10.586-12.685c-5.013,0.673-4.178-4.857-10.481-2.782
		c0.461,3.354-2.484,3.029-1.384,7c4.523,1.91,2.851,13.103,0,15.514c-1.932-1.22-2.843-3.525-2.568-7.046
		c-6.641-0.999-6.641,5.209-11.954,5.632c-4.894-2.246-10.274-3.988-13.136-8.446c5.879-1.064,7.935,1.878,13.136,1.397
		c2.911-2.917-0.599-4.028,0-8.442c7.309-1.587,10.22-7.882,17.111-9.808c-2.39-4.42-1.904-7.748-2.589-11.258h-19.723
		c-2.916,3.935-9.48,3.935-10.594,9.801c-0.667-2.082-1.931-3.482-2.612-5.592c-3.488-0.076-8.219,1.294-6.569-4.209
		c9.754,2.157,21.393-5.122,30.29-8.489c0,6.488,11.281,4.857,13.186,1.419c-0.916-3.213-1.185-7.151-2.592-9.887
		c-7.771,1.103-11.587,6.502-19.815,7.08v-8.433c-7.204-2.604-8.496,6.626-3.938,8.433c-7.554,0.991-11.823-1.555-18.417-1.417
		c1.951,7.29-6.087,3.901-6.594,8.457c3.283,1.787,4.056-0.715,5.23,1.414c-0.845,1.862-2.827,2.617-5.23,2.758
		c-2.125-8.041-12.579-7.245-22.438-7.03c-0.692,6.829-4.058,10.695-7.928,14.096c-0.232,4.424,3.445,4.759,2.675,9.84
		c6.51,0.425,9.759-2.665,14.423-4.213c-2.686,7.628,7.245,1.692,7.953,5.659c0.947,3.803-6.203-1.021-5.296,2.771
		c-0.03,7.62,14.418-0.342,11.905,9.859c4.92-3.128,6.444-2.224,11.819,0h1.339c-0.417-1.693,3.792-4.835,3.958-1.392
		c-0.232,1.663-2.092,1.569-3.958,1.392c0.349,3.553,5.646,8.002,0,9.893c-1.552-0.288-1.071-2.604-1.339-4.238
		c-11.696-1.117-17.618-8.371-31.609-7.046c-4.028-1.314-4.135-6.827-9.194-7.028c-0.624,3.996-4.115,4.969-7.936,5.61
		c0.432-3.252-0.203-5.374-1.276-7.05c-5.09,0.317-5.09,5.976-10.545,5.653c-5.008,1.078-6.298-1.722-10.571-1.393
		c-1.459,0.338-0.861,2.79-2.628,2.79c-1.282-0.021-1.073-1.716-1.282-2.79c-3.157,0.459-5.003,2.221-9.289,1.393
		c-10.511-7.015-30.801-3.66-42.118-9.87c-9.857,4.6-22.645,5.906-29.003,7.048c-3.009,5.461,2.383,5.562,3.902,9.882
		c5.04-0.675,8.242,0.565,9.262,4.24c-5.342-1.959-4.734,2.488-6.615,4.217c-2.409-1.245-3.578-3.647-6.549-4.217
		c-5.012,5.428-17.054,3.403-21.115,9.801c7.27-0.235,9.844,4.512,10.55,11.336c6.994-2.707,12.241,0.374,18.461-1.504
		c-6.454,12.414-33.865,2.403-31.678,23.949c4.392,3.403,5.425,3.854,3.981,11.279c2.379,0.177,2.747-1.737,5.234-1.405
		c0.112,2.241-0.614,5.354,1.325,5.618c1.866-4.488,0.611,5.762,3.985,4.219c1.624-5.485,7.501-6.735,11.831-2.806
		c-5.692,4.74-7.753,13.277-14.446,16.887c-6.054,2.027-8.118,8.226-15.802,8.422c1.06,4.512-2.108,4.347-2.661,7.057
		c6.029,0.798,8.215-2.506,14.476-1.405c1.481-4.06,5.614-5.234,10.576-5.652c4.957-9.678,13.525-15.537,21.087-22.503h2.66
		c1.374-1.318,0.389-5.142,3.908-4.219c0.094-0.842,0.228-1.663,1.297-1.373c-0.071,0.837-0.152,1.658-1.297,1.373
		c0.567,6.296-3.53,7.45-5.266,11.266c10.836,1.279,13.458-6.194,22.419-7.047c0.596-6.306-0.694-10.572-1.323-15.5
		c6.054,1.323,6.392-3.5,11.801-2.823c3.706,2.721,6.732,5.99,9.272,9.891c8.38,2.84,15.548,6.91,14.488,19.693
		c6.375-0.91,0.301-7.794,5.323-8.454c0.296,11.912-0.42,24.755,3.892,32.387c-3.976,3.654-1.347,5.21,0,9.868
		c0,2.771-3.585,1.743-2.569,5.64c-0.64,15.427-1.509,25.769,0,40.796c3.492,2.328,5.807,5.972,9.178,8.46
		c3.632,5.438,3.367,15.092,7.895,19.68c-1.526,0.251-1.109,2.561-1.332,4.231c5.517,2.116,6.771,8.702,9.286,14.077
		c4.01-1.063,3.797,2.461,7.812,1.362c0.192-5.987-2.544-4.683-2.571-12.594c-0.752,0-1.487-1.198,0-1.443v1.443
		c2.787-0.723,2.452,1.987,2.571,4.185c4.141,3.162,7.692,6.897,10.594,11.269c-0.955,9.92,2.543,15.115,5.229,21.129
		c10.894,2.888,17.299,10.097,30.332,6.983c1.514,3.634,3.271,6.882,5.303,9.888c4.975-1.088,6.321,1.716,10.493,1.41
		c1.25,3.384,3.872,5.259,6.594,7.015v4.232c7.622,0.848,9.17,8.09,15.861,9.854c1.345-1.859,1.262-5.224,3.931-5.587
		c0.487,5.059,2.7,8.394,3.947,12.592c0,2.827-3.573,1.854-2.606,5.655c0.605,7.248-4.223,8.667-5.272,14.092
		c-2.553,9.822,5.307,15.185,0,19.696c2.303,2.689,6.502,3.344,9.241,5.669c-1.087,2.027-4.24,1.984-6.585,2.775
		c-0.963,11.333,4.831,15.471,11.862,18.349c0.524,3.358-2.442,3.028-1.339,7.013c4.925,4.111,6.681,11.6,14.533,12.672
		c2.401,6.278,6.563,10.756,6.539,19.691c-1.337,1.854-1.235,5.184-2.568,7.013c1.731,0.937,2.409,3.023,2.568,5.646
		c-3.538,6.338,1.588,13.73,0,22.52c-7.113,4.54-3.84,20.294-6.539,29.559c1.935,3.895,5.388-2.443,6.539,1.433
		c1.199,6.896-4.504,6.448-6.539,9.814c-1.677,4.577,4.19,1.099,2.586,5.671c-2.508,3.41,1.447,6.816-1.336,11.216
		c1.29,9.571,5.726,14.491,2.721,22.555c3.881,3.288,3.471,11.222,7.873,14.078c-0.189,2.498,1.553,2.953,1.287,5.61
		c3.331,0.728,5.462,2.658,7.9,4.203c4.942-0.854,13.593,2.328,14.469-2.827c-3.534-0.818-6.11-2.752-7.875-5.64
		c0.983-4.742-5.328-1.769-3.95-7.007c-0.455-6.168,3.811-7.243,3.95-12.685c3.411-0.166,5.112-2.026,5.304-5.592
		c0.673-4.996-4.648-3.439-3.96-8.469c3.534-4.342,8.955-18.234,0-19.707c8.823,2.392,8.519-4.898,10.522-9.813
		c7.097,0.491,9.521-3.976,14.524-5.652c0.87-6.565-2.118-9.048-2.659-14.044h10.549c0.078-1.418,1.617-1.13,2.655-1.452
		c0.729-3.431,1.125-7.216,5.273-7.022c-0.471-7.982,4.973-9.675,7.88-14.099v-9.816c2.51-2.503,4.105-5.963,6.569-8.479
		c6.291-1.972,6.291-1.972,11.868-4.208c0.604-9.024,6.988-16.862,2.641-26.751c2.004-1.175,2.863-3.542,2.642-7.055
		c2.126,0.46,2.292-1.292,3.976-1.362c0.488-4.662,3.874-6.218,5.283-9.825c3.499-3.672-0.195-6.803,3.896-8.459
		c-0.905-4.326,1.332-5.177,1.332-8.495C519.684,555.397,518.287,551.716,517.003,548.003 M456.396,314.355
		c0.648,0.727-0.963,1.755-1.34,1.378C454.384,315.009,456,313.906,456.396,314.355 M354.887,204.531
		c4.051,1.371-1.449,3.785-1.353,5.638C349.558,208.813,354.168,205.416,354.887,204.531 M349.625,211.57
		c4.169-0.651,4.657,2.6,9.222,1.457c0,5.578-5.161,5.758-9.222,6.982V211.57z M308.804,214.45c-0.711-0.772,0.864-1.86,1.26-1.423
		C310.753,213.735,309.158,214.79,308.804,214.45 M281.112,417.062c0.249-1.596,1.27-0.745,1.27,0
		C282.177,418.697,281.112,417.865,281.112,417.062 M282.382,419.885c3.14,0.479,2.994,4.376,5.291,5.621
		C286.012,429.061,281.257,423.999,282.382,419.885"/>
	<path style="fill:#ECECEC;" d="M785.92,225.664c-1.925-6.472-8.111-8.277-6.639-18.307c9.313-0.856,12.787-7.927,19.751-11.285
		c8.327,0.914,12.537-2.505,13.259-9.804h-6.646c-0.319,1.099-0.021,2.79-1.351,2.79c-9.878,1.167-17.245,5.061-25.014,8.455
		c0.657,7.226-6.372,6.377-5.289,14.057c-1.63,2.999-4.915,4.13-5.23,8.438c4.187,2.97,8.307,6.128,13.112,8.478
		C782.458,226.706,783.62,225.58,785.92,225.664"/>
	<path style="fill:#ECECEC;" d="M1005.955,200.345c3.164-2.269,4.722-6.226,7.948-8.453c-5.015-0.693-6.081-6.476-10.585-5.624
		c-0.572,0.078-1.228,3.305-2.628,2.79h-7.866C991.063,199.315,1002.219,195.847,1005.955,200.345"/>
	<path style="fill:#ECECEC;" d="M585.528,263.646c0.144-3.581,4.922-2.216,6.603-4.196c1.397-7.138-3.003-8.077-2.627-14.054
		c-5.717,1.865-7.761-0.898-13.185,1.371c-3.581-0.863-3.299-5.883-7.929-5.589c1.621,6.808-5.234,4.697-5.234,9.803
		c3.684,1.18,3.41-1.964,6.528-1.378c-0.688,3.403-5.059,3.011-3.91,8.423c6.592-1.844,5.166,4.857,9.251,5.621
		C576.112,260.745,584.181,262.205,585.528,263.646"/>
	<path style="fill:#ECECEC;" d="M404.952,263.646c-5.219-1.491-1.787-3.553-5.227-7.042c-4,1.03-3.897-2.407-7.934-1.376
		c-1.86,2.699-0.682,8.584-6.561,7.088c0.084,4.91,4.321,5.616,9.184,5.569C393.986,256.881,403.408,272.492,404.952,263.646"/>
	<path style="fill:#ECECEC;" d="M637.01,314.355c-1.836-1.47-4.07-2.344-5.352-4.224c1.647-8.342-8.737-9.665-3.929-16.908
		c-1.781-1.433-3.999-2.317-5.317-4.25c1.912-1.192,4.186-2.071,3.979-5.616c-4.829-0.434-7.358,1.591-10.51,2.793
		c0.976,7.677-2.085,10.947-1.334,18.323c3.181,2.025,4.825,2.205,6.544,2.807c0.561,4.991-4.432,7.742-6.544,5.605
		c-1.027,6.343,0.914,9.427,2.639,12.709c-2.313,1.295-7.065-0.086-6.635,4.227c6.548-1.022,13.158-1.922,21.107-1.431
		C632.744,322.362,632.019,318.384,637.01,314.355"/>
	<path style="fill:#ECECEC;" d="M601.309,319.979c3.039-1.504,8.004-0.926,10.572-2.828c-1.392-5.888-0.306-6.226,0-12.679h-6.56
		c-0.081,6.296-2.991,1.779-5.268,4.232C600.218,312.765,599.326,317.895,601.309,319.979"/>
	<path style="fill:#ECECEC;" d="M1053.375,360.786c2.538,0.176,0.951,4.633,3.979,4.207c2.915-3.453,2.462-10.481,7.89-11.229
		c-6.897-1.057-11.227-4.905-18.431-5.642c0.963,6.688-1.48,9.667-1.334,15.519C1049.098,367.409,1048.76,359.994,1053.375,360.786"
		/>
	<path style="fill:#ECECEC;" d="M1023.101,404.432c-0.229,4.951,3.107,6.039,5.271,8.396c0.914-5.098,4.108-7.781,7.928-9.848
		c1.759-0.014,2.843,0.693,3.916,1.452c4.166-5.42,12.9-5.949,17.139-11.282c-0.226-10.039-2.92-17.577-2.604-28.157h-5.325
		c1.622,6.599-0.682,9.822,1.361,16.881c-1.047,0.343-1.515,1.201-1.361,2.882c-4.729,2.14-7.062,3.785-11.855,8.394
		c-4.632,2.582-13.01,1.075-13.174,8.465c-0.596,3.881,7.176-1.088,6.624,2.817H1023.101z"/>
	<path style="fill:#ECECEC;" d="M701.52,393.149c0.386,3.937,4.373,1.136,7.881,4.259c0.949-5.263-2.018-6.233-6.549-5.671
		C703.068,392.914,702.31,393.068,701.52,393.149"/>
	<path style="fill:#ECECEC;" d="M995.383,441.041c2.143,1.957,3.404,4.795,3.958,8.42c5.486-0.324,5.037-6.893,5.326-12.649
		C1001.368,433.679,996.796,437.795,995.383,441.041"/>
	<path style="fill:#ECECEC;" d="M385.231,436.812v5.608h5.276C390.342,438.878,388.597,436.959,385.231,436.812"/>
	<path style="fill:#ECECEC;" d="M399.725,443.782c0.389-3.212-0.194-5.359-1.331-6.971h-3.98
		C393.922,441.608,394.82,444.825,399.725,443.782"/>
	<path style="fill:#ECECEC;" d="M401.013,442.42v7.041c2.766,0.567,3.518-0.963,5.274-1.438
		C406.133,444.466,404.396,442.568,401.013,442.42"/>
	<path style="fill:#ECECEC;" d="M398.395,464.938c4.73-0.822,6.381,1.627,9.275,2.832c0.1-4.06,5.451-2.568,9.161-2.832
		c-1.891-9.325-9.161-8.052-17.106-8.449c0.971-3.837-2.694-2.846-2.694-5.621c-2.852-1.585-7.238-1.664-7.863-5.629H369.44
		c-0.591,2.679-2.867,3.531-2.674,7.052c5.369,0.552,5.334-4.643,11.879-2.83c5.547,1.161,6.16,7.527,11.862,8.44
		c3.139,0.877,9.542-1.778,10.506,1.41C396.198,459.455,397.724,461.336,398.395,464.938"/>
	<path style="fill:#ECECEC;" d="M411.553,449.461c-0.411-1.928-3.283-1.182-5.266-1.438
		C403.508,453.229,413.004,454.392,411.553,449.461"/>
	<path style="fill:#ECECEC;" d="M1000.69,464.938c2.056,3.423,4.7,6.257,7.906,8.44c1.653-4.374,6.13-5.635,5.307-12.67
		C1010.313,455.613,1000.507,457.928,1000.69,464.938"/>
	<path style="fill:#ECECEC;" d="M969.025,469.173c3.715-0.812,3.715-5.486,5.307-8.464c-1.18-1.089-2.986-1.493-5.307-1.397
		C966.588,464.797,967.315,460.47,969.025,469.173"/>
	<path style="fill:#ECECEC;" d="M383.869,462.092v5.679c4.436-1.507,4.541,0.449,9.216-1.41
		C393.988,460.724,388.108,462.336,383.869,462.092"/>
	<path style="fill:#ECECEC;" d="M419.443,467.771c4.764,0.348,9.149,0.303,7.931-5.679h-7.931V467.771z"/>
	<path style="fill:#ECECEC;" d="M557.844,467.771c0,2.76-3.581,1.781-2.594,5.608h5.239
		C560.878,470.161,560.131,468.073,557.844,467.771"/>
	<path style="fill:#ECECEC;" d="M1011.26,490.286c2.729,3.021,3.719-0.732,7.869,0c-0.423,3.28-2.816,6.07,1.347,7.013
		c1.865-4.12,5.545-6.263,11.841-5.618c1.236-6.479-4.203-5.825-6.584-8.436c0.33-4.614-1.555-6.804-5.257-7.048
		c-1.853,1.816-1.309,6.1-1.347,9.854C1014.727,483.646,1013.43,486.889,1011.26,490.286"/>
	<path style="fill:#ECECEC;" d="M880.737,494.482c1.884,8.338-5.015,10.057,0,14.071c4.161,0.688,3.506-3.774,6.613-4.213
		C886.263,499.886,883.524,497.157,880.737,494.482"/>
	<path style="fill:#ECECEC;" d="M967.735,532.526c1.29,5.658,7.024,6.544,6.597,14.051c8.548-2.115,7.236,6.31,15.789,4.196
		c-0.374-3.23,3.788-1.546,3.982-4.196c-1.009-0.332-2.606-0.049-2.619-1.451c4.325-1.931,2.159-10.722,6.626-12.6
		c-3.031-4.58,1.091-9.372-1.365-12.714c2.3-1.253,4.546-2.58,3.943-6.986c-3.185-2.689-5.758-6.059-11.859-5.674
		C987.597,521.841,970.079,519.02,967.735,532.526"/>
	<path style="fill:#ECECEC;" d="M942.67,522.624c-1.985-3.278-6.152-5.537-5.215-9.798c-3.607,0.973-2.673-2.836-5.291-2.836
		c0.168,6.198-3.224-0.163-6.615,1.386c0,16.44,18.523,13.097,15.864,32.361c6.49,0.774,8.306,10.044,14.438,7.036
		c3.03-5.375-2.715-11.53-2.556-18.247C949.261,529.628,944.521,525.613,942.67,522.624"/>
	<path style="fill:#ECECEC;" d="M1016.553,533.904c-0.278-6.251-8.33-4.276-10.598-8.44c-6.754,5.797-11.446,21.454-1.288,26.708
		c-0.289-4.048,0.306-7.153,2.618-8.435c2.899,2.715,3.077,7.172,7.907,4.266c-0.671-5.882-5.086-7.776-5.258-14.099
		C1011.667,535.733,1014.727,535.733,1016.553,533.904"/>
	<path style="fill:#ECECEC;" d="M1045.479,528.266c-4.288-2.866-14.812-2.314-14.46,4.261
		C1035.525,535.521,1045.152,534.122,1045.479,528.266"/>
	<path style="fill:#ECECEC;" d="M1060.012,533.904h-9.227c-1.179,2.051-1.972,4.484-5.307,4.225
		c-4.082,1.065-2.458-3.916-6.521-2.838c0.384,3.693-5.193,1.141-3.972,5.608c0.168,3.178,3.28-1.758,6.514,0
		c5.883,5.071,13.585,8.105,18.513,14.096v8.46c7.046-4.555,9.158,2.876,14.492,4.213c4.627-0.202,3.173-6.945,9.219-5.623
		c3.09,1.924,6.586,10.713,11.847,5.623c-2.743-1.239-4.011-4.164-3.957-8.398c-3.446-3.385-8.282-5.203-10.52-9.885v-4.259
		C1070.935,544.747,1068.166,536.463,1060.012,533.904"/>
	<path style="fill:#ECECEC;" d="M990.121,566.276c0.735-4.979-4.597-3.471-3.92-8.45c-10.747,0.292-18.401-2.928-26.379-5.654
		c-1.155,2.507-3.685,3.618-2.593,8.455C969.789,560.789,975.773,568.039,990.121,566.276"/>
	<path style="fill:#ECECEC;" d="M1087.633,621.168c0.533-6.635-2.297-9.69-1.301-16.909c-2.583-0.942-3.002-4.24-5.239-5.608
		c-0.462-10.784-9.434-12.472-7.913-25.344c-2.461,0.305-2.885-1.566-5.254-1.428c-3.394,5.793,1.417,20.348-4.006,23.944
		c-5.177,1.849-2.662-4.648-7.899-2.836c-0.208-3.938-6.229-1.702-5.235-7.008c-0.679-4.462,6.497-0.524,5.235-5.586
		c-4.579-5.47-18.076-1.424-25.002-4.256c-2.298,0.853,0.067,6.662-2.647,7.007c-4.91,0.911-9.271,2.266-13.179,4.262
		c-1.654,4.255-0.466,11.715-5.258,12.672c-3.136-3.342-6.515,0.199-10.594,0c-2.566,0.974,0.314,7.857-2.596,8.401
		c-2.72-0.771-2.567-4.221-5.26-1.378c-3.285,3.523-1.738,12.201-6.586,14.066c-2.959,2.023-8.817,0.937-10.567,4.22
		c1.396,6.272,4.615,14.074,1.325,21.111c2.565,0.996,3.467,3.782,3.946,7.039c0.723,6.415-2.349,8.759-1.368,15.477
		c3.938-0.369,4.125,3.173,7.966,2.833c5.499-2.563,8.729-7.528,18.466-5.648c4.642-6.271,13.889-7.671,25.039-7.022
		c3.762,2.95,6.19,7.447,7.862,12.671c5.153-2.635,3.559,3.25,9.244,0c-0.05,3.702,0.473,8.003-1.334,9.848
		c8.429,5.223,13.425,5.527,26.39,5.652c3.326-2.537,5.773-6.084,10.539-7.131c-0.643-7.185,6.287-6.319,5.226-14.018
		c4.602-0.321,3.444-6.711,7.937-7.022c-1.507-4.995,2.268-7.982,2.631-12.678c0.719-8.593-2.551-17.384-3.945-25.331
		C1090.961,619.303,1088.806,625.313,1087.633,621.168"/>
	<path style="fill:#ECECEC;" d="M780.599,576.138c-2.314,4.114-4.336,8.501-5.289,14.088c-5.716,1.399-8.622,5.689-11.824,9.853
		c-1.06,4.86,1.911,5.436,1.3,9.837c-1.188,2.94-2.094,6.242-3.998,8.452c2.876,6.354-0.906,11.97,3.998,16.895
		c4.272,0.259,5.568-2.503,10.524-1.414c2.86-6.307,1.759-9.104,5.289-15.48v-7.047c0.312-1.574,1.446-2.199,2.624-2.841
		c-2.394-6.156,2.424-11.997,2.697-22.5C780.979,586.05,786.042,575.515,780.599,576.138"/>
	<path style="fill:#ECECEC;" d="M1160.154,671.848c0.255-4.026,0.178-7.714-3.937-7.021v11.2c-1.059,4.144-6.27,3.682-5.283,9.912
		c8.854-1.388,3.017,4.191,2.629,8.422c8.331-0.423,8.632-9.616,11.888-15.483c1.965-2.11,5.501-2.527,6.549-5.673
		C1168.824,668.868,1166.405,672.373,1160.154,671.848"/>
	<path style="fill:#ECECEC;" d="M1145.636,688.747c-1.125,2.958-3.955,4.164-3.904,8.414c-2.332-0.102-4.087,0.332-5.316,1.408
		c-2.221,2.812-3.059,7.062-6.56,8.414c-5.438,2.211-7.036,8.431-9.27,14.104c4.308-2.276,7.158-0.693,11.858,0
		c1.247-3.354,5.319-3.725,3.971-9.864h5.316c0.362-8.021,10.349-5.77,10.49-14.062
		C1151.766,692.495,1148.329,691.096,1145.636,688.747"/>
	<path style="fill:#ECECEC;" d="M1056.02,692.917c-1.471,2.163,4.401,8.505,5.313,12.714c6.41-0.669,10.538-3.732,9.217-12.714
		C1064.795,694.052,1058.346,691.198,1056.02,692.917"/>
	<path style="fill:#ECECEC;" d="M458.992,736.549h5.289C465.183,731.011,458.781,731.969,458.992,736.549"/>
</g>
</svg>
