<?xml version="1.0" encoding="utf-8"?>
<!-- Generator: Adobe Illustrator 16.0.0, SVG Export Plug-In . SVG Version: 6.00 Build 0)  -->
<!DOCTYPE svg PUBLIC "-//W3C//DTD SVG 1.1//EN" "http://www.w3.org/Graphics/SVG/1.1/DTD/svg11.dtd">
<svg version="1.1" id="Layer_1" xmlns="http://www.w3.org/2000/svg" xmlns:xlink="http://www.w3.org/1999/xlink" x="0px" y="0px"
	 width="1320px" height="825px" viewBox="0 0 1320 825" style="enable-background:new 0 0 1320 825;" xml:space="preserve">
<g>
	<g>
		<ellipse style="fill:#C1D0D6;" cx="401.786" cy="254.376" rx="18" ry="16.853"/>
		<polygon style="fill:#C1D0D6;" points="401.788,254.378 401.786,271.232 401.786,273.524 409.1,269.78 		"/>
	</g>
	<g>
		<ellipse style="fill:#C1D0D6;" cx="873.201" cy="447.514" rx="18" ry="16.854"/>
		<polygon style="fill:#C1D0D6;" points="873.203,447.513 873.202,464.367 873.202,466.659 880.516,462.915 		"/>
	</g>
	<g>
		<ellipse style="fill:#C1D0D6;" cx="185.887" cy="279.584" rx="18" ry="16.854"/>
		<polygon style="fill:#C1D0D6;" points="185.888,279.584 185.887,296.438 185.887,298.729 193.2,294.985 		"/>
	</g>
	<g>
		<ellipse style="fill:#C1D0D6;" cx="236.115" cy="537.581" rx="18" ry="16.854"/>
		<polygon style="fill:#C1D0D6;" points="236.116,537.581 236.115,554.436 236.115,556.727 243.428,552.983 		"/>
	</g>
	<g>
		<ellipse style="fill:#C1D0D6;" cx="423.511" cy="658.539" rx="18" ry="16.854"/>
		<polygon style="fill:#C1D0D6;" points="423.513,658.539 423.511,675.394 423.511,677.685 430.825,673.94 		"/>
	</g>
	<g>
		<ellipse style="fill:#C1D0D6;" cx="709.577" cy="617.272" rx="18" ry="16.853"/>
		<polygon style="fill:#C1D0D6;" points="709.578,617.273 709.577,634.128 709.577,636.42 716.891,632.677 		"/>
	</g>
	<g>
		<ellipse style="fill:#C1D0D6;" cx="612.805" cy="416.24" rx="18" ry="16.854"/>
		<line style="fill:#C1D0D6;" x1="612.805" y1="416.24" x2="612.804" y2="433.096"/>
		<line style="fill:#C1D0D6;" x1="620.117" y1="431.643" x2="612.805" y2="416.24"/>
		<line style="fill:#C1D0D6;" x1="620.117" y1="431.643" x2="612.805" y2="416.24"/>
		<polygon style="fill:#C1D0D6;" points="612.806,416.24 612.805,433.096 612.805,435.386 620.118,431.643 		"/>
	</g>
	<g>
		<path style="fill:#C1D0D6;" d="M1154.646,669.761c0-9.307-8.058-16.853-18.002-16.853c-9.939,0-17.998,7.546-17.998,16.853
			c0,9.308,8.059,16.855,17.998,16.855C1146.588,686.616,1154.646,679.068,1154.646,669.761z"/>
		<polygon style="fill:#C1D0D6;" points="1136.646,669.763 1136.645,686.617 1136.645,688.908 1143.958,685.165 		"/>
	</g>
	<g>
		<ellipse style="fill:#C1D0D6;" cx="367.636" cy="108.187" rx="18" ry="16.853"/>
		<polygon style="fill:#C1D0D6;" points="367.637,108.188 367.636,125.042 367.636,127.333 374.949,123.59 		"/>
	</g>
	<g>
		<ellipse style="fill:#C1D0D6;" cx="710.259" cy="97.816" rx="18" ry="16.854"/>
		<polygon style="fill:#C1D0D6;" points="710.26,97.816 710.259,114.671 710.259,116.962 717.572,113.219 		"/>
	</g>
	<g>
		<ellipse style="fill:#C1D0D6;" cx="1106.364" cy="187.562" rx="18" ry="16.853"/>
		<polygon style="fill:#C1D0D6;" points="1106.367,187.563 1106.365,204.418 1106.365,206.709 1113.679,202.966 		"/>
	</g>
</g>
</svg>
