<?xml version="1.0" encoding="utf-8"?>
<!-- Generator: Adobe Illustrator 16.0.0, SVG Export Plug-In . SVG Version: 6.00 Build 0)  -->
<!DOCTYPE svg PUBLIC "-//W3C//DTD SVG 1.1//EN" "http://www.w3.org/Graphics/SVG/1.1/DTD/svg11.dtd">
<svg version="1.1" id="Layer_1" xmlns="http://www.w3.org/2000/svg" xmlns:xlink="http://www.w3.org/1999/xlink" x="0px" y="0px"
	 width="1320px" height="825px" viewBox="0 0 1320 825" style="enable-background:new 0 0 1320 825;" xml:space="preserve">
<text transform="matrix(1 0 0 1 501.3696 358.5117)" style="fill:#88C1D8; font-family:'FontAwesome'; font-size:36;"></text>
<text transform="matrix(1 0 0 1 557.4634 182.9453)" style="fill:#88C1D8; font-family:'FontAwesome'; font-size:36;"></text>
<text transform="matrix(1 0 0 1 476.7993 110.7578)" style="fill:#88C1D8; font-family:'FontAwesome'; font-size:36;"></text>
<text transform="matrix(1 0 0 1 805.124 139.3569)" style="fill:#88C1D8; font-family:'FontAwesome'; font-size:36;"></text>
<text transform="matrix(1 0 0 1 728.8477 363.4922)" style="fill:#88C1D8; font-family:'FontAwesome'; font-size:36;"></text>
<text transform="matrix(1 0 0 1 1043.3115 265.4883)" style="fill:#88C1D8; font-family:'FontAwesome'; font-size:36;"></text>
<text transform="matrix(1 0 0 1 1107.0771 462.0537)" style="fill:#88C1D8; font-family:'FontAwesome'; font-size:36;"></text>
<text transform="matrix(1 0 0 1 1067.8174 635.2949)" style="fill:#88C1D8; font-family:'FontAwesome'; font-size:36;"></text>
<text transform="matrix(1 0 0 1 949.2607 683.0234)" style="fill:#88C1D8; font-family:'FontAwesome'; font-size:36;"></text>
<text transform="matrix(1 0 0 1 638.0098 532.4453)" style="fill:#88C1D8; font-family:'FontAwesome'; font-size:36;"></text>
<text transform="matrix(1 0 0 1 315.4712 622.3594)" style="fill:#88C1D8; font-family:'FontAwesome'; font-size:36;"></text>
<text transform="matrix(1 0 0 1 580.5103 683.0234)" style="fill:#88C1D8; font-family:'FontAwesome'; font-size:36;"></text>
<text transform="matrix(1 0 0 1 306.9946 400.3672)" style="fill:#88C1D8; font-family:'FontAwesome'; font-size:36;"></text>
<text transform="matrix(1 0 0 1 177.1899 400.3672)" style="fill:#88C1D8; font-family:'FontAwesome'; font-size:36;"></text>
<text transform="matrix(1 0 0 1 755.124 219.3569)" style="fill:#88C1D8; font-family:'FontAwesome'; font-size:36;"></text>
</svg>
